<svg xmlns="http://www.w3.org/2000/svg" width="16" height="16" viewBox="0 0 16 16">
  <path fill="#1E78BA" fill-rule="evenodd" d="M13.8323703,8.625 C13.8323703,9.95192308 12.7697273,11.0769231 11.5269753,11.0769231 L9.94201619,11.0769231 C10.2121797,11.6730769 10.3742778,12.25 10.3742778,12.9230769 C10.3742778,13.5576923 10.338256,14.1346154 10.059087,14.7115385 C9.61782001,15.6442308 8.71727506,16 7.78070832,16 C7.47452304,16 7.18634866,15.8653846 6.97021787,15.6442308 C6.06967292,14.7019231 6.34884186,13.1826923 5.81752034,12.5576923 C5.47531326,12.1730769 5.16012253,11.7596154 4.85393725,11.3365385 C4.58377377,10.9615385 3.9714032,10.0961538 3.62019068,9.84615385 L1.15269753,9.84615385 C0.513310618,9.84615385 0,9.29807692 0,8.61538462 L0,2.46153846 C0,1.77884615 0.513310618,1.23076923 1.15269753,1.23076923 L3.74626697,1.23076923 C3.99841955,1.23076923 4.72786096,0.942307692 4.98901899,0.846153846 C6.28580371,0.365384615 7.41148489,0 8.79832411,0 L9.80693444,0 C11.4459262,0 12.6256401,1.03846154 12.6166347,2.83653846 L12.6166347,2.88461538 C12.9678472,3.36538462 13.1569616,3.98076923 13.1569616,4.59615385 C13.1569616,4.73076923 13.1479562,4.875 13.1299453,5.00961538 C13.3550815,5.43269231 13.4721524,5.91346154 13.4721524,6.39423077 C13.4721524,6.61538462 13.445136,6.84615385 13.3911033,7.05769231 C13.6792777,7.51923077 13.8323703,8.06730769 13.8323703,8.625 Z M12.6796728,8.61538462 C12.6796728,8.25961538 12.4275202,7.39423077 12.0042641,7.38461538 C12.1933785,7.15384615 12.3194548,6.70192308 12.3194548,6.39423077 C12.3194548,5.94230769 12.1483513,5.55769231 11.842166,5.25 C11.9502314,5.04807692 12.0042641,4.81730769 12.0042641,4.58653846 C12.0042641,4.14423077 11.7971388,3.59615385 11.4189099,3.375 C11.4459262,3.20192308 11.4639371,3.01923077 11.4639371,2.83653846 C11.4639371,1.71153846 10.7975339,1.23076923 9.79792899,1.23076923 L8.64523147,1.23076923 C7.58258843,1.23076923 6.55596719,1.56730769 5.56536776,1.93269231 C5.07907349,2.11538462 4.25057214,2.46153846 3.74626697,2.46153846 L3.45809259,2.46153846 L3.45809259,8.61538462 L3.74626697,8.61538462 C4.45769747,8.61538462 5.52934596,10.2596154 5.93459118,10.8173077 C6.15972742,11.1153846 6.37585821,11.4134615 6.62801079,11.6923077 C7.50153939,12.6730769 7.20435955,14.1442308 7.78070832,14.7692308 C9.01445489,14.7692308 9.22158023,14.0480769 9.22158023,12.9230769 C9.22158023,11.7884615 8.35705708,10.9711538 8.35705708,9.84615385 L11.5269753,9.84615385 C12.1303404,9.84615385 12.6796728,9.26923077 12.6796728,8.61538462 Z" transform="matrix(1 0 0 -1 1 16)"/>
</svg>
